<svg id="Layer_1" data-name="Layer 1" xmlns="http://www.w3.org/2000/svg" viewBox="0 0 512 498.87"><defs><style>.cls-1{fill:#c0ccdd;}.cls-2{fill:#50b9ff;}.cls-3{fill:#f7818f;}.cls-4{opacity:0.06;}</style></defs><title>cloud-flat</title><path class="cls-1" d="M505.44,400.41H262.56V315.08a6.56,6.56,0,0,0-13.13,0v85.33H6.56a6.56,6.56,0,1,0,0,13.13H505.44a6.56,6.56,0,1,0,0-13.13Z"/><path class="cls-2" d="M459.49,233c0,48.84-36.89,88.62-82.31,88.62H150c-53.76,0-97.48-47.13-97.48-105,0-42.21,24.09-80.87,60.19-97C134.56,74.9,176.51,46.93,223.18,46c.85-.07,1.64-.07,2.49-.07,58.62,0,109.49,43.13,123.73,103.71a76.11,76.11,0,0,1,27.77-5.25C422.6,144.41,459.49,184.19,459.49,233Z"/><path class="cls-3" d="M256,361A45.95,45.95,0,1,0,301.95,407,46,46,0,0,0,256,361Z"/><g class="cls-4"><path d="M459.49,233c0,48.84-36.89,88.62-82.31,88.62h-154V46c.85-.07,1.64-.07,2.49-.07,58.62,0,109.49,43.13,123.73,103.71a76.11,76.11,0,0,1,27.77-5.25C422.6,144.41,459.49,184.19,459.49,233Z"/></g></svg>